<svg width="20" height="20" viewBox="0 0 24 25" fill="none" xmlns="http://www.w3.org/2000/svg">
<path fill-rule="evenodd" clip-rule="evenodd" d="M2.88 16.5C2.88 19.8137 5.56629 22.5 8.88 22.5L16 22.5C19.3137 22.5 22 19.8137 22 16.5L22 9.38C22 6.06629 19.3137 3.38 16 3.38L8.88 3.38C5.56629 3.38 2.88 6.06629 2.88 9.38L2.88 16.5ZM17.74 10.02C17.5995 9.87931 17.4088 9.80017 17.21 9.8C17.012 9.80431 16.8228 9.88283 16.68 10.02L12.44 14.27L8.2 10.02C7.90718 9.72755 7.43282 9.72755 7.14 10.02C6.99705 10.1593 6.91643 10.3504 6.91643 10.55C6.91643 10.7496 6.99705 10.9407 7.14 11.08L11.91 15.86C12.0505 16.0007 12.2412 16.0798 12.44 16.08C12.6388 16.0798 12.8295 16.0007 12.97 15.86L17.74 11.08C17.8829 10.9407 17.9636 10.7496 17.9636 10.55C17.9636 10.3504 17.8829 10.1593 17.74 10.02Z" fill="#B9BABA"/>
</svg>
